<?xml version="1.0" standalone="no"?>
<!DOCTYPE svg PUBLIC "-//W3C//DTD SVG 20010904//EN"
 "http://www.w3.org/TR/2001/REC-SVG-20010904/DTD/svg10.dtd">
<svg version="1.0" xmlns="http://www.w3.org/2000/svg"
 width="64" height="64" viewBox="0 0 2347.000000 2347.000000"
 preserveAspectRatio="xMidYMid meet">

<g transform="translate(0.000000,2347.000000) scale(0.100000,-0.100000)"
fill="#000000" stroke="none">
<path d="M11430 21890 c-428 -16 -697 -66 -1110 -208 -498 -171 -999 -446
-1357 -746 -54 -46 -149 -136 -210 -200 l-113 -118 -439 17 c-486 20 -729 14
-1028 -25 -431 -56 -941 -209 -1343 -403 -753 -364 -1450 -1001 -1883 -1722
-43 -71 -125 -222 -183 -335 -115 -228 -171 -319 -224 -362 -20 -15 -94 -54
-165 -86 -344 -155 -690 -414 -1056 -789 -370 -380 -605 -735 -828 -1251 -117
-268 -236 -621 -285 -842 -100 -454 -102 -1036 -5 -1605 37 -220 79 -372 184
-664 34 -95 32 -109 -55 -371 -98 -294 -151 -548 -197 -935 -25 -213 -25 -900
0 -1123 65 -573 203 -1030 478 -1582 268 -537 580 -973 983 -1375 660 -657
1458 -1098 2426 -1339 341 -85 547 -106 1081 -106 754 0 1044 59 1858 381 123
49 229 89 233 89 5 0 65 -49 133 -110 282 -249 704 -529 1086 -721 481 -240
1012 -382 1649 -440 193 -18 649 -15 845 4 338 34 679 108 925 199 134 50 382
156 700 300 179 81 315 132 330 123 17 -11 163 -219 433 -620 527 -780 660
-967 770 -1082 68 -71 82 -76 277 -93 189 -17 977 -24 1250 -11 451 21 539 59
642 276 29 61 33 80 33 150 0 76 -3 86 -51 185 -28 58 -117 217 -198 354 -157
264 -158 266 -87 266 34 0 275 12 616 30 581 32 1024 131 1540 345 622 258
1051 541 1501 990 642 640 1050 1308 1254 2053 116 423 158 745 186 1424 l17
403 160 290 c256 462 379 739 506 1131 172 528 214 820 213 1484 0 593 -28
849 -142 1263 -323 1176 -964 2142 -1830 2760 -110 78 -167 115 -438 281 -104
64 -173 128 -206 194 -14 27 -48 108 -76 179 -336 844 -1014 1710 -1714 2185
-581 395 -1332 710 -2034 852 -285 59 -814 94 -1457 97 -126 0 -284 4 -350 8
l-120 7 -200 138 c-239 165 -365 241 -565 341 -391 196 -819 347 -1135 400
-324 55 -803 80 -1225 65z m705 -1590 c102 -12 200 -37 215 -55 11 -13 -46
-58 -233 -178 -65 -43 -155 -107 -200 -143 -328 -263 -764 -732 -984 -1059
-137 -203 -308 -576 -436 -950 -110 -321 -117 -392 -117 -1116 l0 -519 -156 0
c-196 0 -352 -14 -572 -51 -533 -88 -1145 -278 -1567 -484 -475 -233 -933
-561 -1315 -945 -318 -319 -522 -588 -815 -1072 l-119 -198 -1265 0 c-1198 0
-1655 8 -1746 30 -55 13 -70 36 -84 127 -54 357 -52 584 5 871 95 476 342 919
729 1307 326 326 566 479 1002 639 l181 67 324 -209 c578 -374 729 -446 943
-446 110 0 174 14 283 65 109 50 191 109 277 200 89 94 121 148 147 252 39
154 9 377 -72 537 -95 189 -456 455 -963 711 -225 113 -208 88 -134 209 64
105 123 177 272 329 375 384 646 560 1090 707 256 84 481 124 785 139 69 3
153 8 186 11 l62 6 4 -198 c4 -168 8 -209 26 -264 91 -278 399 -510 677 -510
202 0 425 112 561 282 100 124 149 228 203 423 87 318 182 482 431 739 208
216 406 362 667 494 329 166 573 229 998 255 128 8 630 6 710 -3z m3370 -970
c665 -31 842 -59 1190 -185 689 -250 1282 -678 1692 -1221 126 -167 244 -370
258 -446 9 -46 -9 -59 -123 -87 -46 -11 -114 -37 -150 -56 -150 -79 -337 -261
-402 -390 -70 -140 -84 -326 -36 -488 76 -257 262 -463 479 -532 64 -21 98
-25 191 -25 194 0 342 34 751 172 l270 91 130 -66 c150 -77 278 -172 483 -360
137 -125 323 -322 422 -447 249 -313 545 -942 635 -1348 64 -290 93 -723 75
-1104 -17 -362 -43 -518 -129 -778 -221 -664 -576 -1148 -896 -1221 -46 -11
-159 -14 -472 -14 -226 0 -415 3 -418 7 -4 4 22 123 58 265 36 142 75 310 86
373 86 490 124 1220 81 1534 -31 217 -164 432 -346 557 -118 81 -274 129 -419
129 -206 0 -377 -80 -540 -251 -172 -181 -196 -293 -225 -1049 -29 -737 -51
-866 -201 -1169 -194 -393 -462 -670 -818 -846 -218 -108 -329 -131 -846 -175
-428 -37 -513 -66 -680 -234 -160 -161 -215 -278 -223 -474 -5 -132 11 -214
64 -330 46 -100 107 -183 200 -272 90 -85 166 -130 274 -159 291 -80 895 -37
1405 99 373 99 657 224 945 414 l175 116 998 0 997 0 0 -23 c0 -32 -45 -285
-70 -392 -99 -429 -272 -788 -537 -1120 -587 -737 -1355 -1182 -2243 -1302
-167 -22 -627 -25 -790 -5 -848 105 -1487 411 -2036 974 -220 226 -413 482
-614 818 -168 281 -280 432 -377 513 -146 120 -384 175 -575 133 -254 -56
-460 -247 -549 -506 -31 -90 -33 -103 -34 -240 0 -109 4 -161 18 -210 27 -99
81 -224 147 -342 59 -105 85 -147 269 -438 50 -80 96 -162 103 -182 25 -82
-16 -118 -280 -245 -335 -160 -506 -224 -724 -267 -202 -41 -295 -48 -677 -53
-522 -7 -673 11 -985 117 -400 136 -709 323 -976 590 -362 360 -588 821 -691
1405 -31 173 -38 512 -15 693 39 305 133 579 280 822 301 493 804 810 1350
850 253 18 983 30 1946 30 1026 1 1922 13 2120 30 158 13 257 32 389 76 434
144 796 435 1128 907 303 432 476 803 552 1182 89 446 108 1164 42 1620 -30
201 -66 351 -141 575 -101 305 -212 537 -425 890 -308 510 -462 660 -766 742
-119 32 -301 32 -414 0 -220 -63 -397 -228 -470 -439 -80 -230 -22 -432 245
-853 307 -484 393 -678 470 -1060 43 -213 60 -380 60 -597 0 -281 -31 -488
-105 -710 -86 -257 -189 -422 -406 -653 l-149 -158 -1702 -5 c-1684 -5 -1971
-10 -2353 -42 -531 -45 -803 -119 -1250 -340 -367 -181 -625 -364 -890 -629
-168 -169 -277 -303 -400 -491 -185 -284 -345 -600 -345 -683 0 -16 -7 -37
-15 -48 -14 -18 -17 -18 -102 26 -195 99 -403 368 -507 658 -104 290 -111 864
-15 1272 155 664 663 1365 1320 1822 359 250 794 457 1148 548 418 106 1472
145 2061 75 539 -65 748 -73 885 -37 140 38 238 94 340 197 132 132 199 274
212 450 15 215 -101 465 -285 611 -78 61 -169 104 -356 165 -283 93 -319 138
-382 471 -65 340 -20 715 133 1098 101 256 257 512 425 700 326 365 885 702
1439 870 163 49 397 98 522 109 134 12 867 13 1112 1z m-10145 -7584 c0 -249
12 -494 35 -746 8 -85 15 -161 15 -167 0 -10 -28 -13 -108 -13 -130 0 -232
-23 -330 -75 -182 -96 -337 -293 -388 -494 -25 -101 -16 -243 23 -354 58 -166
168 -317 303 -417 131 -97 190 -104 930 -119 l445 -8 155 -100 c152 -98 312
-189 617 -351 84 -45 177 -98 208 -118 50 -33 55 -40 55 -73 0 -105 129 -767
193 -991 l44 -152 -56 -25 c-303 -135 -505 -195 -751 -222 -273 -31 -746 -41
-970 -21 -458 42 -843 165 -1302 418 -159 87 -228 132 -353 226 -282 213 -726
653 -920 912 -212 281 -394 675 -489 1059 -114 458 -128 960 -40 1390 29 143
123 465 154 531 38 78 107 115 250 133 36 5 563 9 1173 10 l1107 1 0 -234z"/>
<path d="M8565 3000 c-412 -4 -820 -10 -905 -14 -1949 -83 -2230 -102 -2473
-167 -162 -44 -267 -149 -326 -326 -86 -257 92 -554 375 -628 172 -45 1023
-103 2549 -175 1452 -68 1718 -73 3680 -73 2191 0 4066 27 5070 73 457 21
2065 120 2189 135 443 53 628 166 676 413 42 211 -78 477 -252 561 -227 109
-1189 159 -3698 192 -989 12 -5898 19 -6885 9z"/>
</g>
</svg>
